<?xml version="1.0" encoding="UTF-8"?>
<svg version="1.0" viewBox="0 0 339 300" xmlns="http://www.w3.org/2000/svg" xmlns:xlink="http://www.w3.org/1999/xlink" preserveAspectRatio="xMidYMid meet" width="300" height="300">
<defs/>
<!-- <rect x="10" y="120" width="450" height="150" fill="#fff"/>
<rect x="10" y="120" width="450" height="150" fill="#004aad"/>-->
<g fill="#fff"> 
<g transform="translate(32.941 215.17)">
<path d="m28.125 1.7031c-4.8555 0-9.4688-0.64062-13.844-1.9219-4.3672-1.2891-7.2812-2.7578-8.75-4.4062-1.25-1.4062-2.2305-3.3984-2.9375-5.9844-0.69922-2.582-1.0469-5.4688-1.0469-8.6562 0-1.832 0.32812-3.1797 0.98438-4.0469 0.66406-0.875 1.7227-1.3125 3.1719-1.3125 1.8008 0 3.5781 1.3203 5.3281 3.9531 0.58203 0.88672 1.0508 1.5469 1.4062 1.9844 2 2.6172 4.1328 4.5859 6.4062 5.9062 2.2695 1.3125 4.6562 1.9688 7.1562 1.9688 1.8633 0 3.375-0.375 4.5312-1.125 1.1641-0.75 1.75-1.707 1.75-2.875 0-1.5508-2.2031-3.0859-6.6094-4.6094-1.9688-0.66406-3.5391-1.2383-4.7031-1.7188-6.043-2.3203-10.562-5.2227-13.562-8.7031-3-3.4883-4.5-7.5781-4.5-12.266 0-6.0078 2.3477-10.969 7.0469-14.875 4.707-3.9141 10.738-5.875 18.094-5.875 2.7188 0 5.4414 0.29688 8.1719 0.89062 2.7266 0.59375 4.1172 0.89062 4.1719 0.89062 0.72656 0 1.6719-0.12891 2.8281-0.39062 1.1641-0.25781 1.9883-0.39062 2.4688-0.39062 1.0508 0 2.0078 0.24609 2.875 0.73438 0.875 0.48047 1.7852 1.2891 2.7344 2.4219 1.5 1.7734 2.6719 3.6172 3.5156 5.5312 0.84375 1.918 1.2656 3.6797 1.2656 5.2812 0 1.9688-0.58594 3.5742-1.75 4.8125-1.1562 1.2305-2.6523 1.8438-4.4844 1.8438-1.6992 0-3.8906-1.3008-6.5781-3.9062-0.85547-0.83203-1.5312-1.457-2.0312-1.875-1.2305-1.1328-2.6367-2.0195-4.2188-2.6562-1.5742-0.63281-3.1797-0.95312-4.8125-0.95312-1.6172 0-2.875 0.32031-3.7812 0.95312-0.89844 0.63672-1.3438 1.5234-1.3438 2.6562 0 2.1992 3.2422 4.25 9.7344 6.1562 0.94531 0.28125 1.6445 0.49219 2.0938 0.625 6.5938 1.9688 11.254 4.4336 13.984 7.3906 2.7383 2.9492 4.1094 6.9062 4.1094 11.875 0 6.7109-2.6562 12.168-7.9688 16.375-5.3125 4.1992-12.281 6.2969-20.906 6.2969z"/>
</g>
</g>
<g fill="#fff">
<g transform="translate(83.112 215.17)">
<path d="m26.922-56.828v16.594c0 0.75 0.050781 1.25 0.15625 1.5 0.11328 0.25 0.32031 0.375 0.625 0.375 0.28125 0 0.76562-0.45703 1.4531-1.375 0.5625-0.75 1.0352-1.332 1.4219-1.75 1.4375-1.5508 3.1172-2.707 5.0469-3.4688 1.9375-0.75781 4.0977-1.1406 6.4844-1.1406 2.9883 0 5.6602 0.71484 8.0156 2.1406 2.3633 1.4297 4.0547 3.3906 5.0781 5.8906 1.1133 2.6367 1.7383 8.125 1.875 16.469 0.03125 2.2188 0.054687 3.9297 0.078125 5.125 0 0.25 0.015625 0.60938 0.046875 1.0781 0.050781 3.0742 0.41016 5.0273 1.0781 5.8594 0.19531 0.23047 0.54688 0.55469 1.0469 0.96875 1.4141 1.1875 2.125 2.4492 2.125 3.7812 0 1.918-1.0859 3.293-3.25 4.125-2.168 0.82031-5.7734 1.2344-10.812 1.2344-4.8555 0-8.4297-0.45312-10.719-1.3594-2.293-0.91406-3.4375-2.332-3.4375-4.25 0-0.78125 0.34766-1.6602 1.0469-2.6406 0.69531-0.98828 1.1133-1.6172 1.25-1.8906 0.35156-0.72656 0.61328-1.6484 0.78125-2.7656 0.16406-1.125 0.25-2.8945 0.25-5.3125v-4.7812c0-3.25-0.46094-5.5781-1.375-6.9844-0.90625-1.4141-2.3867-2.125-4.4375-2.125-1.3672 0-2.3867 0.38281-3.0625 1.1406-0.67969 0.76172-1.0156 1.8906-1.0156 3.3906 0 4.4062 0.046875 7.918 0.14062 10.531 0.09375 2.6055 0.23828 4.4492 0.4375 5.5312 0.11328 0.46875 0.64062 1.3242 1.5781 2.5625 0.94531 1.2305 1.4219 2.3438 1.4219 3.3438 0 1.9688-1.1406 3.3984-3.4219 4.2812-2.2734 0.88281-5.9023 1.3281-10.891 1.3281-4.5234 0-8.1523-0.54688-10.891-1.6406-2.7305-1.0938-4.0938-2.5234-4.0938-4.2969 0-1.4141 0.77344-2.6484 2.3281-3.7031 0.64453-0.44531 1.0938-0.8125 1.3438-1.0938 0.63281-0.83203 1.0859-2.2852 1.3594-4.3594 0.28125-2.082 0.42188-5.8125 0.42188-11.188v-6.9062c0-5.3008-0.125-9.1289-0.375-11.484-0.25-2.3633-0.66797-3.7656-1.25-4.2031-0.30469-0.25-0.80469-0.57031-1.5-0.96875-1.7422-0.96875-2.6094-2.3203-2.6094-4.0625 0-1.0312 0.31641-1.8828 0.95312-2.5625 0.63281-0.67578 1.9375-1.4727 3.9062-2.3906 2.7188-1.25 5.6914-2.2266 8.9219-2.9375 3.2266-0.70703 6.3281-1.0625 9.2969-1.0625 1.2188 0 2.0508 0.28125 2.5 0.84375 0.44531 0.55469 0.67188 1.9219 0.67188 4.1094z"/>
</g>
</g>
<g fill="#fff">
<g transform="translate(136.7 215.17)">
<path d="m21.891-28.047c0 1.8047 0.19531 3.8086 0.59375 6.0156 0.40625 2.2109 0.95312 4.3242 1.6406 6.3438 0.66406 2.0312 1.4219 3.5547 2.2656 4.5625 0.85156 1.0117 1.7891 1.5156 2.8125 1.5156 1.1641 0 2.0859-0.50781 2.7656-1.5312 0.67578-1.0312 1.0156-2.4297 1.0156-4.2031 0-5.3516-0.75781-9.9727-2.2656-13.859-1.5117-3.8828-3.2344-5.8281-5.1719-5.8281-1.2188 0-2.1367 0.58594-2.75 1.75-0.60547 1.168-0.90625 2.9141-0.90625 5.2344zm-20.344 6.3281c0-3.5508 0.71094-6.8203 2.1406-9.8125 1.4258-3 3.5508-5.6602 6.375-7.9844 2.5508-2.1328 5.4375-3.7656 8.6562-4.8906s6.6016-1.6875 10.156-1.6875c7.1758 0 12.988 2.0547 17.438 6.1562 4.457 4.1055 6.6875 9.5 6.6875 16.188 0 3.3555-0.64844 6.5391-1.9375 9.5469-1.2812 3.0117-3.1328 5.668-5.5469 7.9688-2.6367 2.4688-5.6016 4.3281-8.8906 5.5781-3.2812 1.2383-6.8516 1.8594-10.703 1.8594-3.3555 0-6.4336-0.51562-9.2344-1.5469-2.8047-1.0391-5.3047-2.6016-7.5-4.6875-2.4688-2.3008-4.3594-4.8945-5.6719-7.7812-1.3125-2.8828-1.9688-5.8516-1.9688-8.9062z"/>
</g>
</g>
<g fill="#fff">
<g transform="translate(182.04 215.17)">
<path d="m28.125-0.5c0 1.7188 0.17578 2.9727 0.53125 3.7656 0.36328 0.78906 1.1289 1.4883 2.2969 2.0938 0.25 0.14453 0.625 0.34375 1.125 0.59375 2.4688 1.25 3.7031 2.7344 3.7031 4.4531 0 2.0703-1.4609 3.6172-4.375 4.6406-2.9062 1.0312-7.3281 1.5469-13.266 1.5469-5.0234 0-8.9219-0.52734-11.703-1.5781-2.7734-1.0547-4.1562-2.5391-4.1562-4.4531 0-1.6367 1.0547-3.1328 3.1719-4.4844 0.6875-0.44922 1.1953-0.79688 1.5312-1.0469 0.64453-0.46875 1.0859-1.7617 1.3281-3.875 0.25-2.1016 0.375-6.6328 0.375-13.594 0-5.0703-0.12109-9.0859-0.35938-12.047-0.23047-2.957-0.5625-4.6797-1-5.1719-0.36719-0.41406-1.0273-0.74219-1.9844-0.98438-0.96094-0.23828-1.5898-0.45312-1.8906-0.64062-0.75-0.5-1.2891-1.0039-1.6094-1.5156-0.3125-0.51953-0.46875-1.1562-0.46875-1.9062 0-0.98828 0.53125-2.0352 1.5938-3.1406 1.0703-1.1133 2.5508-2.1289 4.4375-3.0469 3.1562-1.582 6.3438-2.832 9.5625-3.75 3.2188-0.91406 5.9102-1.375 8.0781-1.375 0.9375 0 1.5664 0.18359 1.8906 0.54688 0.32031 0.35547 0.48438 1.0898 0.48438 2.2031 0 1.0234 0.082031 1.7422 0.25 2.1562 0.16406 0.41797 0.42578 0.625 0.78125 0.625 0.41406 0 1.082-0.41406 2-1.25 0.46875-0.4375 0.85938-0.78125 1.1719-1.0312 1.1875-1.0312 2.5781-1.8164 4.1719-2.3594 1.5938-0.53906 3.3203-0.8125 5.1875-0.8125 5.4375 0 9.8164 2.0156 13.141 6.0469 3.332 4.0234 5 9.3711 5 16.047 0 3.5-0.46875 6.6953-1.4062 9.5781-0.92969 2.8867-2.3359 5.4805-4.2188 7.7812-1.9375 2.4062-4.1406 4.25-6.6094 5.5312-2.4688 1.2695-5.0625 1.9062-7.7812 1.9062-2.168 0-4.418-0.55469-6.75-1.6562-2.3242-1.1133-3.543-1.6719-3.6562-1.6719-0.1875 0-0.33594 0.14844-0.4375 0.4375-0.09375 0.29297-0.14062 0.77344-0.14062 1.4375zm3.9062-32.484c-1.2734 0-2.1797 0.23047-2.7188 0.6875-0.54297 0.44922-0.91406 1.3281-1.1094 2.6406-0.21875 1.9375-0.38672 4.0117-0.5 6.2188-0.10547 2.1992-0.15625 4.4805-0.15625 6.8438 0 2.1875 0.30469 3.6836 0.92188 4.4844 0.625 0.80469 1.7852 1.2031 3.4844 1.2031 2.1016 0 3.6953-0.81641 4.7812-2.4531 1.082-1.6328 1.625-4.0625 1.625-7.2812 0-3.5703-0.62109-6.5195-1.8594-8.8438-1.2305-2.332-2.7188-3.5-4.4688-3.5z"/>
</g>
</g>
<g fill="#fff">
<g transform="translate(233.92 215.17)">
<path d="m28.125-0.5c0 1.7188 0.17578 2.9727 0.53125 3.7656 0.36328 0.78906 1.1289 1.4883 2.2969 2.0938 0.25 0.14453 0.625 0.34375 1.125 0.59375 2.4688 1.25 3.7031 2.7344 3.7031 4.4531 0 2.0703-1.4609 3.6172-4.375 4.6406-2.9062 1.0312-7.3281 1.5469-13.266 1.5469-5.0234 0-8.9219-0.52734-11.703-1.5781-2.7734-1.0547-4.1562-2.5391-4.1562-4.4531 0-1.6367 1.0547-3.1328 3.1719-4.4844 0.6875-0.44922 1.1953-0.79688 1.5312-1.0469 0.64453-0.46875 1.0859-1.7617 1.3281-3.875 0.25-2.1016 0.375-6.6328 0.375-13.594 0-5.0703-0.12109-9.0859-0.35938-12.047-0.23047-2.957-0.5625-4.6797-1-5.1719-0.36719-0.41406-1.0273-0.74219-1.9844-0.98438-0.96094-0.23828-1.5898-0.45312-1.8906-0.64062-0.75-0.5-1.2891-1.0039-1.6094-1.5156-0.3125-0.51953-0.46875-1.1562-0.46875-1.9062 0-0.98828 0.53125-2.0352 1.5938-3.1406 1.0703-1.1133 2.5508-2.1289 4.4375-3.0469 3.1562-1.582 6.3438-2.832 9.5625-3.75 3.2188-0.91406 5.9102-1.375 8.0781-1.375 0.9375 0 1.5664 0.18359 1.8906 0.54688 0.32031 0.35547 0.48438 1.0898 0.48438 2.2031 0 1.0234 0.082031 1.7422 0.25 2.1562 0.16406 0.41797 0.42578 0.625 0.78125 0.625 0.41406 0 1.082-0.41406 2-1.25 0.46875-0.4375 0.85938-0.78125 1.1719-1.0312 1.1875-1.0312 2.5781-1.8164 4.1719-2.3594 1.5938-0.53906 3.3203-0.8125 5.1875-0.8125 5.4375 0 9.8164 2.0156 13.141 6.0469 3.332 4.0234 5 9.3711 5 16.047 0 3.5-0.46875 6.6953-1.4062 9.5781-0.92969 2.8867-2.3359 5.4805-4.2188 7.7812-1.9375 2.4062-4.1406 4.25-6.6094 5.5312-2.4688 1.2695-5.0625 1.9062-7.7812 1.9062-2.168 0-4.418-0.55469-6.75-1.6562-2.3242-1.1133-3.543-1.6719-3.6562-1.6719-0.1875 0-0.33594 0.14844-0.4375 0.4375-0.09375 0.29297-0.14062 0.77344-0.14062 1.4375zm3.9062-32.484c-1.2734 0-2.1797 0.23047-2.7188 0.6875-0.54297 0.44922-0.91406 1.3281-1.1094 2.6406-0.21875 1.9375-0.38672 4.0117-0.5 6.2188-0.10547 2.1992-0.15625 4.4805-0.15625 6.8438 0 2.1875 0.30469 3.6836 0.92188 4.4844 0.625 0.80469 1.7852 1.2031 3.4844 1.2031 2.1016 0 3.6953-0.81641 4.7812-2.4531 1.082-1.6328 1.625-4.0625 1.625-7.2812 0-3.5703-0.62109-6.5195-1.8594-8.8438-1.2305-2.332-2.7188-3.5-4.4688-3.5z"/>
</g>
</g>
<g fill="#fff">
<g transform="translate(285.79 215.17)">
<path d="m15.109-13.688-6.5781-14.234c-0.13672-0.30078-0.32031-0.71094-0.54688-1.2344-1.0234-2.4453-2.2148-4.0039-3.5781-4.6719-0.13672-0.082031-0.38672-0.20703-0.75-0.375-2.1055-1.0195-3.1562-2.4297-3.1562-4.2344 0-2.2812 1.4609-4.0312 4.3906-5.25 2.9258-1.2188 7.1758-1.8281 12.75-1.8281 5.2695 0 8.8906 0.41797 10.859 1.25 1.9688 0.83594 2.9531 2.2617 2.9531 4.2812 0 1.1992-0.47656 2.2188-1.4219 3.0625-0.9375 0.84375-1.4062 1.4492-1.4062 1.8125 0 0.4375 0.13281 1.0898 0.40625 1.9531 0.28125 0.85547 0.71094 2.0234 1.2969 3.5 0.58203 1.4375 1.1484 2.4375 1.7031 3 0.55078 0.55469 1.2344 0.82812 2.0469 0.82812 0.6875 0 1.3008-0.26953 1.8438-0.8125 0.53906-0.53906 1.1172-1.5195 1.7344-2.9375 0.5-1.0312 0.89062-2.0391 1.1719-3.0312 0.28906-1 0.4375-1.6953 0.4375-2.0938 0-0.66406-0.57031-1.5469-1.7031-2.6406-1.1367-1.0938-1.7031-2.082-1.7031-2.9688 0-1.6328 0.9375-2.8945 2.8125-3.7812 1.875-0.89453 4.5391-1.3438 8-1.3438 3.3008 0 5.75 0.43359 7.3438 1.2969 1.5938 0.86719 2.3906 2.168 2.3906 3.9062 0 1.2188-0.25 2.1719-0.75 2.8594-0.49219 0.67969-1.6367 1.3516-3.4375 2.0156-2.2812 0.88672-4.2148 3.3984-5.7969 7.5312l-0.078125 0.25c-0.80469 2.1875-2.3516 6.9531-4.6406 14.297-2.2812 7.3359-4.4492 12.871-6.5 16.609-2.5547 4.5703-5.3906 7.9258-8.5156 10.062-3.1172 2.1328-6.6992 3.2031-10.75 3.2031-4.25 0-7.6719-1.1055-10.266-3.3125-2.5938-2.1992-3.8906-5.0586-3.8906-8.5781 0-2.3555 0.78125-4.3672 2.3438-6.0312 1.5703-1.6641 3.4258-2.5 5.5625-2.5 1.5508 0 2.9141 0.375 4.0938 1.125 1.1875 0.75 2.0977 1.8203 2.7344 3.2031 0.38281 0.80078 0.73438 1.8945 1.0469 3.2812 0.41406 1.75 1.0078 2.625 1.7812 2.625 0.66406 0 1.1875-0.25781 1.5625-0.76562 0.375-0.51172 0.5625-1.2266 0.5625-2.1406 0-2.1992-2.0938-7.8594-6.2812-16.984z"/>
</g>
</g>
</svg>
